<svg xmlns="http://www.w3.org/2000/svg" xmlns:xlink="http://www.w3.org/1999/xlink" width="194.755" height="73.103" viewBox="0 0 194.755 73.103">
  <defs>
    <clipPath id="clip-path">
      <path id="Pfad_203" data-name="Pfad 203" d="M0,32.26H194.755v-73.1H0Z" transform="translate(0 40.843)" fill="none"/>
    </clipPath>
    <clipPath id="clip-path-2">
      <rect id="Rechteck_49" data-name="Rechteck 49" width="117298.617" height="117298.617" fill="none"/>
    </clipPath>
  </defs>
  <g id="Gruppe_950" data-name="Gruppe 950" transform="translate(0 40.843)">
    <g id="Gruppe_161" data-name="Gruppe 161" transform="translate(0 -40.843)" clip-path="url(#clip-path)">
      <g id="Gruppe_160" data-name="Gruppe 160" transform="translate(-58650.199 -58575.305)" style="isolation: isolate">
        <g id="Gruppe_159" data-name="Gruppe 159">
          <g id="Gruppe_158" data-name="Gruppe 158" clip-path="url(#clip-path-2)">
            <g id="Gruppe_146" data-name="Gruppe 146" transform="translate(58675.457 58578.785)">
              <path id="Pfad_191" data-name="Pfad 191" d="M3.374,12.845S13.7,14.763,16.483,7.13s-4.509-22.572-4.954-23.392c0,0,1.137,4.527-4.48,8.779S-.966-2.3-3.148.26-4.394,7.754.154,11.669c0,0,7.6-1.7,11.038-13.862,0,0,.721,5.976-7.818,15.038" transform="translate(4.272 16.262)" fill="#37a447"/>
            </g>
            <g id="Gruppe_147" data-name="Gruppe 147" transform="translate(58707.523 58611.66)">
              <path id="Pfad_192" data-name="Pfad 192" d="M6.011,1.485h.655L7.094-1.88H-5.2L-7.61,17.653h5.051L-1.621,10H4.386l.456-3.365H-1.2l.643-5.148Z" transform="translate(7.61 1.88)" fill="#37a447"/>
            </g>
            <g id="Gruppe_148" data-name="Gruppe 148" transform="translate(58721.672 58617.074)">
              <path id="Pfad_193" data-name="Pfad 193" d="M5.332.671A4.99,4.99,0,0,0,3.582-.462,5.959,5.959,0,0,0,1.411-.85c-.131,0-.261,0-.39.011C.933-.843.847-.85.757-.85a6.728,6.728,0,0,0-2.864.63A7.514,7.514,0,0,0-4.5,1.536,8.579,8.579,0,0,0-6.141,4.21a9.206,9.206,0,0,0-.61,3.4,6.953,6.953,0,0,0,.422,2.515A5.209,5.209,0,0,0-5.162,11.96a4.98,4.98,0,0,0,1.756,1.133,6.018,6.018,0,0,0,2.178.388c.131,0,.26,0,.388-.011.089,0,.175.011.267.011a6.68,6.68,0,0,0,2.862-.637,7.5,7.5,0,0,0,2.393-1.77A8.636,8.636,0,0,0,6.324,8.393a9.078,9.078,0,0,0,.61-3.37A6.837,6.837,0,0,0,6.5,2.508,5.271,5.271,0,0,0,5.332.671M-1.532,9.733a4.249,4.249,0,0,1-.41-2.151A9.927,9.927,0,0,1-1.732,5.5a6.57,6.57,0,0,1,.589-1.7A3.415,3.415,0,0,1-.211,2.656a1.969,1.969,0,0,1,.918-.4,1.357,1.357,0,0,1,1.008.625,4.261,4.261,0,0,1,.41,2.166A9.943,9.943,0,0,1,1.917,7.12a6.735,6.735,0,0,1-.591,1.7A3.409,3.409,0,0,1,.394,9.975a1.989,1.989,0,0,1-.916.4,1.356,1.356,0,0,1-1.009-.639" transform="translate(6.751 0.85)" fill="#37a447"/>
            </g>
            <g id="Gruppe_149" data-name="Gruppe 149" transform="translate(58735.672 58617.074)">
              <path id="Pfad_194" data-name="Pfad 194" d="M5.332.671A4.99,4.99,0,0,0,3.582-.462,5.959,5.959,0,0,0,1.411-.85c-.131,0-.261,0-.39.011C.933-.843.847-.85.757-.85a6.728,6.728,0,0,0-2.864.63A7.514,7.514,0,0,0-4.5,1.536,8.579,8.579,0,0,0-6.141,4.21a9.206,9.206,0,0,0-.61,3.4,6.953,6.953,0,0,0,.422,2.515A5.209,5.209,0,0,0-5.162,11.96a4.98,4.98,0,0,0,1.756,1.133,6.018,6.018,0,0,0,2.178.388c.131,0,.26,0,.388-.011.089,0,.175.011.267.011a6.68,6.68,0,0,0,2.862-.637,7.5,7.5,0,0,0,2.393-1.77A8.636,8.636,0,0,0,6.324,8.393a9.078,9.078,0,0,0,.61-3.37A6.837,6.837,0,0,0,6.5,2.508,5.271,5.271,0,0,0,5.332.671M-1.532,9.733a4.249,4.249,0,0,1-.41-2.151A9.927,9.927,0,0,1-1.732,5.5a6.57,6.57,0,0,1,.589-1.7A3.415,3.415,0,0,1-.211,2.656a1.969,1.969,0,0,1,.918-.4,1.357,1.357,0,0,1,1.008.625,4.261,4.261,0,0,1,.41,2.166A9.943,9.943,0,0,1,1.917,7.12a6.735,6.735,0,0,1-.591,1.7A3.409,3.409,0,0,1,.394,9.975a1.989,1.989,0,0,1-.916.4,1.353,1.353,0,0,1-1.009-.639" transform="translate(6.751 0.85)" fill="#37a447"/>
            </g>
            <g id="Gruppe_150" data-name="Gruppe 150" transform="translate(58749.977 58611.129)">
              <path id="Pfad_195" data-name="Pfad 195" d="M6.4,0H2.326L1.5,6.556a4.521,4.521,0,0,0-.616-.315A3.991,3.991,0,0,0-.667,5.953c-.1,0-.208.007-.313.014s-.224-.014-.34-.014a4.681,4.681,0,0,0-1.743.335,6.349,6.349,0,0,0-1.6.933A7.664,7.664,0,0,0-6.053,8.654,9.72,9.72,0,0,0-7.139,10.5a10.95,10.95,0,0,0-.711,2.151A10.8,10.8,0,0,0-8.1,15,8.664,8.664,0,0,0-7.816,17.4a4.642,4.642,0,0,0,.8,1.641,3.111,3.111,0,0,0,1.228.945,3.944,3.944,0,0,0,1.568.3c.116,0,.233-.005.347-.014.1.007.2.014.308.014a4.55,4.55,0,0,0,2.452-.718,7.282,7.282,0,0,0,1.452-1.21v.4a2.1,2.1,0,0,0,.061.523.974.974,0,0,0,.213.417,1.035,1.035,0,0,0,.417.274,1.8,1.8,0,0,0,.65.1h2.88L7.056,0ZM-2.933,16.524A3.634,3.634,0,0,1-3.321,14.6a8.467,8.467,0,0,1,.249-2.051,7.085,7.085,0,0,1,.689-1.79A4.272,4.272,0,0,1-1.331,9.492,2.149,2.149,0,0,1-.306,9.035a3.707,3.707,0,0,1,.56.107,2.448,2.448,0,0,1,.865.442L.69,12.964a10.789,10.789,0,0,1-.643,1.629,7.934,7.934,0,0,1-.811,1.321,4.167,4.167,0,0,1-.9.884,1.827,1.827,0,0,1-.575.276,1.246,1.246,0,0,1-.7-.549" transform="translate(8.104)" fill="#37a447"/>
            </g>
            <g id="Gruppe_151" data-name="Gruppe 151" transform="translate(58765.699 58611.484)">
              <path id="Pfad_196" data-name="Pfad 196" d="M6.717,1.553l.464-3.519H-8.067L-8.5,1.553H-3.43L-5.422,17.907H-.348L1.671,1.553H6.717Z" transform="translate(8.504 1.966)" fill="#92be3d"/>
            </g>
            <g id="Gruppe_152" data-name="Gruppe 152" transform="translate(58779.949 58617.172)">
              <path id="Pfad_197" data-name="Pfad 197" d="M4.723.113A2.741,2.741,0,0,0,3.41-.136a2.249,2.249,0,0,0-.347,0,3.032,3.032,0,0,0-1.292.4A5.1,5.1,0,0,0,.539,1.274a8.076,8.076,0,0,0-.791,1.02V1.233A1.2,1.2,0,0,0-.628.242a1.605,1.605,0,0,0-1.042-.3H-4.228l-1.752,14h4.559l.779-6.29a9.578,9.578,0,0,1,.8-2.2A3.9,3.9,0,0,1,1.2,4.149,2.222,2.222,0,0,1,2.407,3.7a2.3,2.3,0,0,1,1.169.15s.263.1.369.14Z" transform="translate(5.98 0.143)" fill="#92be3d"/>
            </g>
            <g id="Gruppe_153" data-name="Gruppe 153" transform="translate(58789.813 58616.996)">
              <path id="Pfad_198" data-name="Pfad 198" d="M4.321,0c-.064,0-.129,0-.193.005C4.083,0,4.039,0,3.994,0A9.313,9.313,0,0,0,.189.764a9.3,9.3,0,0,0-4.958,5.08,9.573,9.573,0,0,0-.7,3.65,7.054,7.054,0,0,0,.328,2.27,4.611,4.611,0,0,0,.872,1.582,3.5,3.5,0,0,0,1.256.927,3.648,3.648,0,0,0,1.473.308c.066,0,.131,0,.2-.007.043,0,.086.007.131.007A4.256,4.256,0,0,0,1.13,13.9a6.956,6.956,0,0,0,1.609-1.468v.594a2.19,2.19,0,0,0,.063.533.983.983,0,0,0,.218.422,1.052,1.052,0,0,0,.422.279,1.855,1.855,0,0,0,.66.1H6.695L8.413.626A10.19,10.19,0,0,0,6.367.136,15.6,15.6,0,0,0,4.321,0M3.149,6.819a13.149,13.149,0,0,1-.56,1.718,8.35,8.35,0,0,1-.716,1.405,3.883,3.883,0,0,1-.825.949,1.488,1.488,0,0,1-.718.329A1.1,1.1,0,0,1-.076,11.1a1.19,1.19,0,0,1-.437-.43A2.5,2.5,0,0,1-.807,9.9,5.224,5.224,0,0,1-.916,8.743,7.41,7.41,0,0,1-.581,6.486,5.956,5.956,0,0,1,.366,4.63,4.653,4.653,0,0,1,1.832,3.369,3.9,3.9,0,0,1,3.639,2.91Z" transform="translate(5.471 0)" fill="#92be3d"/>
            </g>
            <g id="Gruppe_154" data-name="Gruppe 154" transform="translate(58803.941 58617.023)">
              <path id="Pfad_199" data-name="Pfad 199" d="M4.557,4.553a.829.829,0,0,0-.4-.1,1.177,1.177,0,0,0-.372.057.813.813,0,0,0-.283-.057,1.046,1.046,0,0,0-.626.184c-.174.122-.36.256-.56.4a3.972,3.972,0,0,1-.7.4A2.119,2.119,0,0,1,.943,5.6,1.862,1.862,0,0,1-.272,4.921a2.576,2.576,0,0,1-.449-.873A4.148,4.148,0,0,1-.886,2.815,8.32,8.32,0,0,1-.605.551,5.677,5.677,0,0,1,.138-1.128,3.473,3.473,0,0,1,1.194-2.17a2.361,2.361,0,0,1,.938-.342,1.851,1.851,0,0,1,.447.095,3.244,3.244,0,0,1,.532.245c.145.088.279.168.4.245a.824.824,0,0,0,.456.116.8.8,0,0,0,.311-.068.881.881,0,0,0,.342.068.788.788,0,0,0,.424-.116,1.783,1.783,0,0,0,.34-.265L6.751-3.759a5.1,5.1,0,0,0-1.82-1.521A5.623,5.623,0,0,0,2.5-5.764c-.14,0-.276,0-.412.011-.082,0-.159-.011-.243-.011a6.806,6.806,0,0,0-3.055.687A7.665,7.665,0,0,0-3.621-3.213,8.636,8.636,0,0,0-5.2-.486,9.564,9.564,0,0,0-5.769,2.8a7.53,7.53,0,0,0,.383,2.483A5.409,5.409,0,0,0-4.3,7.166a4.774,4.774,0,0,0,1.7,1.2,5.653,5.653,0,0,0,2.237.424c.152,0,.3,0,.447-.011.07,0,.136.011.206.011a8.907,8.907,0,0,0,1.672-.145,5.893,5.893,0,0,0,1.425-.456,6.012,6.012,0,0,0,1.3-.832,13.275,13.275,0,0,0,1.31-1.267L4.9,4.805a1.4,1.4,0,0,0-.34-.252" transform="translate(5.769 5.764)" fill="#92be3d"/>
            </g>
            <g id="Gruppe_155" data-name="Gruppe 155" transform="translate(58816.352 58610.934)">
              <path id="Pfad_200" data-name="Pfad 200" d="M4.5,5.718a2.382,2.382,0,0,0-.49-.546,4.409,4.409,0,0,0,1.282-1.1L9.249-.966H5.13a1.548,1.548,0,0,0-.757.17,1.986,1.986,0,0,0-.58.512L.874,3.7a1.659,1.659,0,0,1-.442.39A1.155,1.155,0,0,1-.094,4.2L1.311-7.239h-4.5L-5.7,13.18h4.5l.764-6.261h.109a1.117,1.117,0,0,1,.551.1.936.936,0,0,1,.32.444l1.965,5a1.042,1.042,0,0,0,.456.553,1.57,1.57,0,0,0,.743.158H7.72L4.883,6.414a5.65,5.65,0,0,0-.381-.7" transform="translate(5.7 7.239)" fill="#92be3d"/>
            </g>
            <g id="Gruppe_156" data-name="Gruppe 156" transform="translate(58829.461 58616.996)">
              <path id="Pfad_201" data-name="Pfad 201" d="M3.21,1.266a2.752,2.752,0,0,1,.6.1,4.62,4.62,0,0,1,.7.279c.2.106.4.2.573.279a1.271,1.271,0,0,0,.539.124A.9.9,0,0,0,5.931,2a1.254,1.254,0,0,0,.344.055.764.764,0,0,0,.435-.109,1.645,1.645,0,0,0,.356-.354l1.09-1.5a6.12,6.12,0,0,0-1.835-1.2A6.2,6.2,0,0,0,3.792-1.6c-.118,0-.231.009-.345.014s-.2-.014-.31-.014a6.5,6.5,0,0,0-2.483.437A5.336,5.336,0,0,0-1.125-.014,4.688,4.688,0,0,0-2.2,1.629a5.2,5.2,0,0,0-.362,1.91,3.609,3.609,0,0,0,.226,1.35,2.9,2.9,0,0,0,.592.941,3.486,3.486,0,0,0,.832.634,8.258,8.258,0,0,0,.956.444Q.531,7.1,1,7.255a5.288,5.288,0,0,1,.832.354,1.958,1.958,0,0,1,.592.471,1.052,1.052,0,0,1,.226.694,1.247,1.247,0,0,1-.437.949,1.721,1.721,0,0,1-1.049.385,2.26,2.26,0,0,1-.669-.147,4.024,4.024,0,0,1-.682-.354l-.532-.354a1.036,1.036,0,0,0-.587-.163,1.368,1.368,0,0,0-.342.039,1.164,1.164,0,0,0-.313-.039,1.157,1.157,0,0,0-.619.156,1.553,1.553,0,0,0-.444.43L-4.064,11.23a3.576,3.576,0,0,0,.779.689,5.6,5.6,0,0,0,1.056.551A7.32,7.32,0,0,0-1,12.839a6.587,6.587,0,0,0,1.324.136c.129,0,.251-.009.376-.014.093,0,.184.014.277.014a7.252,7.252,0,0,0,2.531-.417,5.936,5.936,0,0,0,1.915-1.117,4.817,4.817,0,0,0,1.215-1.65,4.9,4.9,0,0,0,.422-2.012,3.377,3.377,0,0,0-.226-1.3,3.058,3.058,0,0,0-.594-.941,3.6,3.6,0,0,0-.838-.668,9.121,9.121,0,0,0-.961-.485q-.491-.212-.961-.381a5.856,5.856,0,0,1-.839-.376,2.163,2.163,0,0,1-.594-.464.928.928,0,0,1-.224-.628,1.193,1.193,0,0,1,.4-.933,1.671,1.671,0,0,1,.979-.342" transform="translate(4.064 1.603)" fill="#92be3d"/>
            </g>
            <g id="Gruppe_157" data-name="Gruppe 157" transform="translate(58654.832 58595.93)">
              <path id="Pfad_202" data-name="Pfad 202" d="M19.059,2.887a8.493,8.493,0,0,1-1.992,3.658S21.8,9.169,21.561,16.891c-.22,7.115-4.663,14.054-6.567,16.5s-2.808,4.276-6.655,4.845C4.55,38.8,2.8,36.365.826,36.289v-.007c-.014,0-.029,0-.045,0s-.03,0-.045,0v.007c-1.974.075-3.725,2.511-7.514,1.949-3.848-.569-4.75-2.395-6.655-4.845s-6.347-9.388-6.567-16.5c-.209-6.753,3.383-9.606,4.29-10.217a.037.037,0,0,1,.011-.007c.122-.082.193-.122.193-.122l0-.005a8.7,8.7,0,0,1,5.395-.952v4.664L-3.336,3.3l-6.778-6.954V1.106a10.423,10.423,0,0,0-8.319,2.527h0c-8.631,7.285-5.207,16.655-4.027,20.748,1.219,4.235,4.645,11.278,8.609,15.455s9.776,2.815,11.509,2.044A28.412,28.412,0,0,1,.781,40.707,28.705,28.705,0,0,1,3.9,41.881c1.731.771,7.544,2.132,11.507-2.044S22.8,28.616,24.022,24.381s4.843-14.117-4.963-21.494" transform="translate(24.129 3.655)" fill="#92be3d"/>
            </g>
          </g>
        </g>
      </g>
    </g>
  </g>
</svg>
